<?xml version="1.0" encoding="utf-8" standalone="no"?>
<!DOCTYPE svg PUBLIC "-//W3C//DTD SVG 1.1//EN"
  "http://www.w3.org/Graphics/SVG/1.1/DTD/svg11.dtd">
<svg xmlns:xlink="http://www.w3.org/1999/xlink" width="887.98125pt" height="340.71125pt" viewBox="0 0 887.98125 340.71125" xmlns="http://www.w3.org/2000/svg" version="1.1">
 <metadata>
  <rdf:RDF xmlns:dc="http://purl.org/dc/elements/1.1/" xmlns:cc="http://creativecommons.org/ns#" xmlns:rdf="http://www.w3.org/1999/02/22-rdf-syntax-ns#">
   <cc:Work>
    <dc:type rdf:resource="http://purl.org/dc/dcmitype/StillImage"/>
    <dc:date>2025-08-19T22:17:37.371336</dc:date>
    <dc:format>image/svg+xml</dc:format>
    <dc:creator>
     <cc:Agent>
      <dc:title>Matplotlib v3.10.5, https://matplotlib.org/</dc:title>
     </cc:Agent>
    </dc:creator>
   </cc:Work>
  </rdf:RDF>
 </metadata>
 <defs>
  <style type="text/css">*{stroke-linejoin: round; stroke-linecap: butt}</style>
 </defs>
 <g id="figure_1">
  <g id="patch_1">
   <path d="M 0 340.71125 
L 887.98125 340.71125 
L 887.98125 0 
L 0 0 
z
" style="fill: #ffffff"/>
  </g>
  <g id="axes_1">
   <g id="patch_2">
    <path d="M 43.78125 301.501875 
L 424.235795 301.501875 
L 424.235795 24.301875 
L 43.78125 24.301875 
z
" style="fill: #ffffff"/>
   </g>
   <g id="matplotlib.axis_1">
    <g id="xtick_1">
     <g id="line2d_1">
      <defs>
       <path id="mf7cc138d1c" d="M 0 0 
L 0 3.5 
" style="stroke: #000000; stroke-width: 0.8"/>
      </defs>
      <g>
       <use xlink:href="#mf7cc138d1c" x="61.074638" y="301.501875" style="stroke: #000000; stroke-width: 0.8"/>
      </g>
     </g>
     <g id="text_1">
      <!-- 0.0 -->
      <g transform="translate(53.123076 316.100313) scale(0.1 -0.1)">
       <defs>
        <path id="DejaVuSans-30" d="M 2034 4250 
Q 1547 4250 1301 3770 
Q 1056 3291 1056 2328 
Q 1056 1369 1301 889 
Q 1547 409 2034 409 
Q 2525 409 2770 889 
Q 3016 1369 3016 2328 
Q 3016 3291 2770 3770 
Q 2525 4250 2034 4250 
z
M 2034 4750 
Q 2819 4750 3233 4129 
Q 3647 3509 3647 2328 
Q 3647 1150 3233 529 
Q 2819 -91 2034 -91 
Q 1250 -91 836 529 
Q 422 1150 422 2328 
Q 422 3509 836 4129 
Q 1250 4750 2034 4750 
z
" transform="scale(0.015625)"/>
        <path id="DejaVuSans-2e" d="M 684 794 
L 1344 794 
L 1344 0 
L 684 0 
L 684 794 
z
" transform="scale(0.015625)"/>
       </defs>
       <use xlink:href="#DejaVuSans-30"/>
       <use xlink:href="#DejaVuSans-2e" transform="translate(63.623047 0)"/>
       <use xlink:href="#DejaVuSans-30" transform="translate(95.410156 0)"/>
      </g>
     </g>
    </g>
    <g id="xtick_2">
     <g id="line2d_2">
      <g>
       <use xlink:href="#mf7cc138d1c" x="106.583555" y="301.501875" style="stroke: #000000; stroke-width: 0.8"/>
      </g>
     </g>
     <g id="text_2">
      <!-- 2.5 -->
      <g transform="translate(98.631993 316.100313) scale(0.1 -0.1)">
       <defs>
        <path id="DejaVuSans-32" d="M 1228 531 
L 3431 531 
L 3431 0 
L 469 0 
L 469 531 
Q 828 903 1448 1529 
Q 2069 2156 2228 2338 
Q 2531 2678 2651 2914 
Q 2772 3150 2772 3378 
Q 2772 3750 2511 3984 
Q 2250 4219 1831 4219 
Q 1534 4219 1204 4116 
Q 875 4013 500 3803 
L 500 4441 
Q 881 4594 1212 4672 
Q 1544 4750 1819 4750 
Q 2544 4750 2975 4387 
Q 3406 4025 3406 3419 
Q 3406 3131 3298 2873 
Q 3191 2616 2906 2266 
Q 2828 2175 2409 1742 
Q 1991 1309 1228 531 
z
" transform="scale(0.015625)"/>
        <path id="DejaVuSans-35" d="M 691 4666 
L 3169 4666 
L 3169 4134 
L 1269 4134 
L 1269 2991 
Q 1406 3038 1543 3061 
Q 1681 3084 1819 3084 
Q 2600 3084 3056 2656 
Q 3513 2228 3513 1497 
Q 3513 744 3044 326 
Q 2575 -91 1722 -91 
Q 1428 -91 1123 -41 
Q 819 9 494 109 
L 494 744 
Q 775 591 1075 516 
Q 1375 441 1709 441 
Q 2250 441 2565 725 
Q 2881 1009 2881 1497 
Q 2881 1984 2565 2268 
Q 2250 2553 1709 2553 
Q 1456 2553 1204 2497 
Q 953 2441 691 2322 
L 691 4666 
z
" transform="scale(0.015625)"/>
       </defs>
       <use xlink:href="#DejaVuSans-32"/>
       <use xlink:href="#DejaVuSans-2e" transform="translate(63.623047 0)"/>
       <use xlink:href="#DejaVuSans-35" transform="translate(95.410156 0)"/>
      </g>
     </g>
    </g>
    <g id="xtick_3">
     <g id="line2d_3">
      <g>
       <use xlink:href="#mf7cc138d1c" x="152.092472" y="301.501875" style="stroke: #000000; stroke-width: 0.8"/>
      </g>
     </g>
     <g id="text_3">
      <!-- 5.0 -->
      <g transform="translate(144.14091 316.100313) scale(0.1 -0.1)">
       <use xlink:href="#DejaVuSans-35"/>
       <use xlink:href="#DejaVuSans-2e" transform="translate(63.623047 0)"/>
       <use xlink:href="#DejaVuSans-30" transform="translate(95.410156 0)"/>
      </g>
     </g>
    </g>
    <g id="xtick_4">
     <g id="line2d_4">
      <g>
       <use xlink:href="#mf7cc138d1c" x="197.601389" y="301.501875" style="stroke: #000000; stroke-width: 0.8"/>
      </g>
     </g>
     <g id="text_4">
      <!-- 7.5 -->
      <g transform="translate(189.649827 316.100313) scale(0.1 -0.1)">
       <defs>
        <path id="DejaVuSans-37" d="M 525 4666 
L 3525 4666 
L 3525 4397 
L 1831 0 
L 1172 0 
L 2766 4134 
L 525 4134 
L 525 4666 
z
" transform="scale(0.015625)"/>
       </defs>
       <use xlink:href="#DejaVuSans-37"/>
       <use xlink:href="#DejaVuSans-2e" transform="translate(63.623047 0)"/>
       <use xlink:href="#DejaVuSans-35" transform="translate(95.410156 0)"/>
      </g>
     </g>
    </g>
    <g id="xtick_5">
     <g id="line2d_5">
      <g>
       <use xlink:href="#mf7cc138d1c" x="243.110306" y="301.501875" style="stroke: #000000; stroke-width: 0.8"/>
      </g>
     </g>
     <g id="text_5">
      <!-- 10.0 -->
      <g transform="translate(231.977494 316.100313) scale(0.1 -0.1)">
       <defs>
        <path id="DejaVuSans-31" d="M 794 531 
L 1825 531 
L 1825 4091 
L 703 3866 
L 703 4441 
L 1819 4666 
L 2450 4666 
L 2450 531 
L 3481 531 
L 3481 0 
L 794 0 
L 794 531 
z
" transform="scale(0.015625)"/>
       </defs>
       <use xlink:href="#DejaVuSans-31"/>
       <use xlink:href="#DejaVuSans-30" transform="translate(63.623047 0)"/>
       <use xlink:href="#DejaVuSans-2e" transform="translate(127.246094 0)"/>
       <use xlink:href="#DejaVuSans-30" transform="translate(159.033203 0)"/>
      </g>
     </g>
    </g>
    <g id="xtick_6">
     <g id="line2d_6">
      <g>
       <use xlink:href="#mf7cc138d1c" x="288.619223" y="301.501875" style="stroke: #000000; stroke-width: 0.8"/>
      </g>
     </g>
     <g id="text_6">
      <!-- 12.5 -->
      <g transform="translate(277.486411 316.100313) scale(0.1 -0.1)">
       <use xlink:href="#DejaVuSans-31"/>
       <use xlink:href="#DejaVuSans-32" transform="translate(63.623047 0)"/>
       <use xlink:href="#DejaVuSans-2e" transform="translate(127.246094 0)"/>
       <use xlink:href="#DejaVuSans-35" transform="translate(159.033203 0)"/>
      </g>
     </g>
    </g>
    <g id="xtick_7">
     <g id="line2d_7">
      <g>
       <use xlink:href="#mf7cc138d1c" x="334.12814" y="301.501875" style="stroke: #000000; stroke-width: 0.8"/>
      </g>
     </g>
     <g id="text_7">
      <!-- 15.0 -->
      <g transform="translate(322.995327 316.100313) scale(0.1 -0.1)">
       <use xlink:href="#DejaVuSans-31"/>
       <use xlink:href="#DejaVuSans-35" transform="translate(63.623047 0)"/>
       <use xlink:href="#DejaVuSans-2e" transform="translate(127.246094 0)"/>
       <use xlink:href="#DejaVuSans-30" transform="translate(159.033203 0)"/>
      </g>
     </g>
    </g>
    <g id="xtick_8">
     <g id="line2d_8">
      <g>
       <use xlink:href="#mf7cc138d1c" x="379.637057" y="301.501875" style="stroke: #000000; stroke-width: 0.8"/>
      </g>
     </g>
     <g id="text_8">
      <!-- 17.5 -->
      <g transform="translate(368.504244 316.100313) scale(0.1 -0.1)">
       <use xlink:href="#DejaVuSans-31"/>
       <use xlink:href="#DejaVuSans-37" transform="translate(63.623047 0)"/>
       <use xlink:href="#DejaVuSans-2e" transform="translate(127.246094 0)"/>
       <use xlink:href="#DejaVuSans-35" transform="translate(159.033203 0)"/>
      </g>
     </g>
    </g>
    <g id="text_9">
     <!-- Épocas -->
     <g transform="translate(216.197585 331.431563) scale(0.1 -0.1)">
      <defs>
       <path id="DejaVuSans-c9" d="M 628 4666 
L 3578 4666 
L 3578 4134 
L 1259 4134 
L 1259 2753 
L 3481 2753 
L 3481 2222 
L 1259 2222 
L 1259 531 
L 3634 531 
L 3634 0 
L 628 0 
L 628 4666 
z
M 2268 5921 
L 2846 5921 
L 2134 5096 
L 1655 5096 
L 2268 5921 
z
" transform="scale(0.015625)"/>
       <path id="DejaVuSans-70" d="M 1159 525 
L 1159 -1331 
L 581 -1331 
L 581 3500 
L 1159 3500 
L 1159 2969 
Q 1341 3281 1617 3432 
Q 1894 3584 2278 3584 
Q 2916 3584 3314 3078 
Q 3713 2572 3713 1747 
Q 3713 922 3314 415 
Q 2916 -91 2278 -91 
Q 1894 -91 1617 61 
Q 1341 213 1159 525 
z
M 3116 1747 
Q 3116 2381 2855 2742 
Q 2594 3103 2138 3103 
Q 1681 3103 1420 2742 
Q 1159 2381 1159 1747 
Q 1159 1113 1420 752 
Q 1681 391 2138 391 
Q 2594 391 2855 752 
Q 3116 1113 3116 1747 
z
" transform="scale(0.015625)"/>
       <path id="DejaVuSans-6f" d="M 1959 3097 
Q 1497 3097 1228 2736 
Q 959 2375 959 1747 
Q 959 1119 1226 758 
Q 1494 397 1959 397 
Q 2419 397 2687 759 
Q 2956 1122 2956 1747 
Q 2956 2369 2687 2733 
Q 2419 3097 1959 3097 
z
M 1959 3584 
Q 2709 3584 3137 3096 
Q 3566 2609 3566 1747 
Q 3566 888 3137 398 
Q 2709 -91 1959 -91 
Q 1206 -91 779 398 
Q 353 888 353 1747 
Q 353 2609 779 3096 
Q 1206 3584 1959 3584 
z
" transform="scale(0.015625)"/>
       <path id="DejaVuSans-63" d="M 3122 3366 
L 3122 2828 
Q 2878 2963 2633 3030 
Q 2388 3097 2138 3097 
Q 1578 3097 1268 2742 
Q 959 2388 959 1747 
Q 959 1106 1268 751 
Q 1578 397 2138 397 
Q 2388 397 2633 464 
Q 2878 531 3122 666 
L 3122 134 
Q 2881 22 2623 -34 
Q 2366 -91 2075 -91 
Q 1284 -91 818 406 
Q 353 903 353 1747 
Q 353 2603 823 3093 
Q 1294 3584 2113 3584 
Q 2378 3584 2631 3529 
Q 2884 3475 3122 3366 
z
" transform="scale(0.015625)"/>
       <path id="DejaVuSans-61" d="M 2194 1759 
Q 1497 1759 1228 1600 
Q 959 1441 959 1056 
Q 959 750 1161 570 
Q 1363 391 1709 391 
Q 2188 391 2477 730 
Q 2766 1069 2766 1631 
L 2766 1759 
L 2194 1759 
z
M 3341 1997 
L 3341 0 
L 2766 0 
L 2766 531 
Q 2569 213 2275 61 
Q 1981 -91 1556 -91 
Q 1019 -91 701 211 
Q 384 513 384 1019 
Q 384 1609 779 1909 
Q 1175 2209 1959 2209 
L 2766 2209 
L 2766 2266 
Q 2766 2663 2505 2880 
Q 2244 3097 1772 3097 
Q 1472 3097 1187 3025 
Q 903 2953 641 2809 
L 641 3341 
Q 956 3463 1253 3523 
Q 1550 3584 1831 3584 
Q 2591 3584 2966 3190 
Q 3341 2797 3341 1997 
z
" transform="scale(0.015625)"/>
       <path id="DejaVuSans-73" d="M 2834 3397 
L 2834 2853 
Q 2591 2978 2328 3040 
Q 2066 3103 1784 3103 
Q 1356 3103 1142 2972 
Q 928 2841 928 2578 
Q 928 2378 1081 2264 
Q 1234 2150 1697 2047 
L 1894 2003 
Q 2506 1872 2764 1633 
Q 3022 1394 3022 966 
Q 3022 478 2636 193 
Q 2250 -91 1575 -91 
Q 1294 -91 989 -36 
Q 684 19 347 128 
L 347 722 
Q 666 556 975 473 
Q 1284 391 1588 391 
Q 1994 391 2212 530 
Q 2431 669 2431 922 
Q 2431 1156 2273 1281 
Q 2116 1406 1581 1522 
L 1381 1569 
Q 847 1681 609 1914 
Q 372 2147 372 2553 
Q 372 3047 722 3315 
Q 1072 3584 1716 3584 
Q 2034 3584 2315 3537 
Q 2597 3491 2834 3397 
z
" transform="scale(0.015625)"/>
      </defs>
      <use xlink:href="#DejaVuSans-c9"/>
      <use xlink:href="#DejaVuSans-70" transform="translate(63.183594 0)"/>
      <use xlink:href="#DejaVuSans-6f" transform="translate(126.660156 0)"/>
      <use xlink:href="#DejaVuSans-63" transform="translate(187.841797 0)"/>
      <use xlink:href="#DejaVuSans-61" transform="translate(242.822266 0)"/>
      <use xlink:href="#DejaVuSans-73" transform="translate(304.101562 0)"/>
     </g>
    </g>
   </g>
   <g id="matplotlib.axis_2">
    <g id="ytick_1">
     <g id="line2d_9">
      <defs>
       <path id="me4523247b2" d="M 0 0 
L -3.5 0 
" style="stroke: #000000; stroke-width: 0.8"/>
      </defs>
      <g>
       <use xlink:href="#me4523247b2" x="43.78125" y="267.615565" style="stroke: #000000; stroke-width: 0.8"/>
      </g>
     </g>
     <g id="text_10">
      <!-- 0.6 -->
      <g transform="translate(20.878125 271.414784) scale(0.1 -0.1)">
       <defs>
        <path id="DejaVuSans-36" d="M 2113 2584 
Q 1688 2584 1439 2293 
Q 1191 2003 1191 1497 
Q 1191 994 1439 701 
Q 1688 409 2113 409 
Q 2538 409 2786 701 
Q 3034 994 3034 1497 
Q 3034 2003 2786 2293 
Q 2538 2584 2113 2584 
z
M 3366 4563 
L 3366 3988 
Q 3128 4100 2886 4159 
Q 2644 4219 2406 4219 
Q 1781 4219 1451 3797 
Q 1122 3375 1075 2522 
Q 1259 2794 1537 2939 
Q 1816 3084 2150 3084 
Q 2853 3084 3261 2657 
Q 3669 2231 3669 1497 
Q 3669 778 3244 343 
Q 2819 -91 2113 -91 
Q 1303 -91 875 529 
Q 447 1150 447 2328 
Q 447 3434 972 4092 
Q 1497 4750 2381 4750 
Q 2619 4750 2861 4703 
Q 3103 4656 3366 4563 
z
" transform="scale(0.015625)"/>
       </defs>
       <use xlink:href="#DejaVuSans-30"/>
       <use xlink:href="#DejaVuSans-2e" transform="translate(63.623047 0)"/>
       <use xlink:href="#DejaVuSans-36" transform="translate(95.410156 0)"/>
      </g>
     </g>
    </g>
    <g id="ytick_2">
     <g id="line2d_10">
      <g>
       <use xlink:href="#me4523247b2" x="43.78125" y="226.153402" style="stroke: #000000; stroke-width: 0.8"/>
      </g>
     </g>
     <g id="text_11">
      <!-- 0.8 -->
      <g transform="translate(20.878125 229.952621) scale(0.1 -0.1)">
       <defs>
        <path id="DejaVuSans-38" d="M 2034 2216 
Q 1584 2216 1326 1975 
Q 1069 1734 1069 1313 
Q 1069 891 1326 650 
Q 1584 409 2034 409 
Q 2484 409 2743 651 
Q 3003 894 3003 1313 
Q 3003 1734 2745 1975 
Q 2488 2216 2034 2216 
z
M 1403 2484 
Q 997 2584 770 2862 
Q 544 3141 544 3541 
Q 544 4100 942 4425 
Q 1341 4750 2034 4750 
Q 2731 4750 3128 4425 
Q 3525 4100 3525 3541 
Q 3525 3141 3298 2862 
Q 3072 2584 2669 2484 
Q 3125 2378 3379 2068 
Q 3634 1759 3634 1313 
Q 3634 634 3220 271 
Q 2806 -91 2034 -91 
Q 1263 -91 848 271 
Q 434 634 434 1313 
Q 434 1759 690 2068 
Q 947 2378 1403 2484 
z
M 1172 3481 
Q 1172 3119 1398 2916 
Q 1625 2713 2034 2713 
Q 2441 2713 2670 2916 
Q 2900 3119 2900 3481 
Q 2900 3844 2670 4047 
Q 2441 4250 2034 4250 
Q 1625 4250 1398 4047 
Q 1172 3844 1172 3481 
z
" transform="scale(0.015625)"/>
       </defs>
       <use xlink:href="#DejaVuSans-30"/>
       <use xlink:href="#DejaVuSans-2e" transform="translate(63.623047 0)"/>
       <use xlink:href="#DejaVuSans-38" transform="translate(95.410156 0)"/>
      </g>
     </g>
    </g>
    <g id="ytick_3">
     <g id="line2d_11">
      <g>
       <use xlink:href="#me4523247b2" x="43.78125" y="184.691239" style="stroke: #000000; stroke-width: 0.8"/>
      </g>
     </g>
     <g id="text_12">
      <!-- 1.0 -->
      <g transform="translate(20.878125 188.490458) scale(0.1 -0.1)">
       <use xlink:href="#DejaVuSans-31"/>
       <use xlink:href="#DejaVuSans-2e" transform="translate(63.623047 0)"/>
       <use xlink:href="#DejaVuSans-30" transform="translate(95.410156 0)"/>
      </g>
     </g>
    </g>
    <g id="ytick_4">
     <g id="line2d_12">
      <g>
       <use xlink:href="#me4523247b2" x="43.78125" y="143.229077" style="stroke: #000000; stroke-width: 0.8"/>
      </g>
     </g>
     <g id="text_13">
      <!-- 1.2 -->
      <g transform="translate(20.878125 147.028295) scale(0.1 -0.1)">
       <use xlink:href="#DejaVuSans-31"/>
       <use xlink:href="#DejaVuSans-2e" transform="translate(63.623047 0)"/>
       <use xlink:href="#DejaVuSans-32" transform="translate(95.410156 0)"/>
      </g>
     </g>
    </g>
    <g id="ytick_5">
     <g id="line2d_13">
      <g>
       <use xlink:href="#me4523247b2" x="43.78125" y="101.766914" style="stroke: #000000; stroke-width: 0.8"/>
      </g>
     </g>
     <g id="text_14">
      <!-- 1.4 -->
      <g transform="translate(20.878125 105.566132) scale(0.1 -0.1)">
       <defs>
        <path id="DejaVuSans-34" d="M 2419 4116 
L 825 1625 
L 2419 1625 
L 2419 4116 
z
M 2253 4666 
L 3047 4666 
L 3047 1625 
L 3713 1625 
L 3713 1100 
L 3047 1100 
L 3047 0 
L 2419 0 
L 2419 1100 
L 313 1100 
L 313 1709 
L 2253 4666 
z
" transform="scale(0.015625)"/>
       </defs>
       <use xlink:href="#DejaVuSans-31"/>
       <use xlink:href="#DejaVuSans-2e" transform="translate(63.623047 0)"/>
       <use xlink:href="#DejaVuSans-34" transform="translate(95.410156 0)"/>
      </g>
     </g>
    </g>
    <g id="ytick_6">
     <g id="line2d_14">
      <g>
       <use xlink:href="#me4523247b2" x="43.78125" y="60.304751" style="stroke: #000000; stroke-width: 0.8"/>
      </g>
     </g>
     <g id="text_15">
      <!-- 1.6 -->
      <g transform="translate(20.878125 64.103969) scale(0.1 -0.1)">
       <use xlink:href="#DejaVuSans-31"/>
       <use xlink:href="#DejaVuSans-2e" transform="translate(63.623047 0)"/>
       <use xlink:href="#DejaVuSans-36" transform="translate(95.410156 0)"/>
      </g>
     </g>
    </g>
    <g id="text_16">
     <!-- Loss -->
     <g transform="translate(14.798438 173.869063) rotate(-90) scale(0.1 -0.1)">
      <defs>
       <path id="DejaVuSans-4c" d="M 628 4666 
L 1259 4666 
L 1259 531 
L 3531 531 
L 3531 0 
L 628 0 
L 628 4666 
z
" transform="scale(0.015625)"/>
      </defs>
      <use xlink:href="#DejaVuSans-4c"/>
      <use xlink:href="#DejaVuSans-6f" transform="translate(53.962891 0)"/>
      <use xlink:href="#DejaVuSans-73" transform="translate(115.144531 0)"/>
      <use xlink:href="#DejaVuSans-73" transform="translate(167.244141 0)"/>
     </g>
    </g>
   </g>
   <g id="line2d_15">
    <path d="M 61.074638 36.901875 
L 79.278205 122.921563 
L 97.481772 158.419092 
L 115.685339 181.606147 
L 133.888906 202.940823 
L 152.092472 218.517222 
L 170.296039 229.903954 
L 188.499606 239.846838 
L 206.703173 246.339663 
L 224.906739 254.646321 
L 243.110306 258.195799 
L 261.313873 265.78759 
L 279.51744 269.292615 
L 297.721006 273.77083 
L 315.924573 276.731737 
L 334.12814 279.819201 
L 352.331707 282.543631 
L 370.535273 285.342533 
L 388.73884 286.541913 
L 406.942407 288.901875 
" clip-path="url(#pa85ab026ed)" style="fill: none; stroke: #ff0000; stroke-width: 1.5; stroke-linecap: square"/>
    <defs>
     <path id="mb679cedc3f" d="M 0 3 
C 0.795609 3 1.55874 2.683901 2.12132 2.12132 
C 2.683901 1.55874 3 0.795609 3 0 
C 3 -0.795609 2.683901 -1.55874 2.12132 -2.12132 
C 1.55874 -2.683901 0.795609 -3 0 -3 
C -0.795609 -3 -1.55874 -2.683901 -2.12132 -2.12132 
C -2.683901 -1.55874 -3 -0.795609 -3 0 
C -3 0.795609 -2.683901 1.55874 -2.12132 2.12132 
C -1.55874 2.683901 -0.795609 3 0 3 
z
" style="stroke: #ff0000"/>
    </defs>
    <g clip-path="url(#pa85ab026ed)">
     <use xlink:href="#mb679cedc3f" x="61.074638" y="36.901875" style="fill: #ff0000; stroke: #ff0000"/>
     <use xlink:href="#mb679cedc3f" x="79.278205" y="122.921563" style="fill: #ff0000; stroke: #ff0000"/>
     <use xlink:href="#mb679cedc3f" x="97.481772" y="158.419092" style="fill: #ff0000; stroke: #ff0000"/>
     <use xlink:href="#mb679cedc3f" x="115.685339" y="181.606147" style="fill: #ff0000; stroke: #ff0000"/>
     <use xlink:href="#mb679cedc3f" x="133.888906" y="202.940823" style="fill: #ff0000; stroke: #ff0000"/>
     <use xlink:href="#mb679cedc3f" x="152.092472" y="218.517222" style="fill: #ff0000; stroke: #ff0000"/>
     <use xlink:href="#mb679cedc3f" x="170.296039" y="229.903954" style="fill: #ff0000; stroke: #ff0000"/>
     <use xlink:href="#mb679cedc3f" x="188.499606" y="239.846838" style="fill: #ff0000; stroke: #ff0000"/>
     <use xlink:href="#mb679cedc3f" x="206.703173" y="246.339663" style="fill: #ff0000; stroke: #ff0000"/>
     <use xlink:href="#mb679cedc3f" x="224.906739" y="254.646321" style="fill: #ff0000; stroke: #ff0000"/>
     <use xlink:href="#mb679cedc3f" x="243.110306" y="258.195799" style="fill: #ff0000; stroke: #ff0000"/>
     <use xlink:href="#mb679cedc3f" x="261.313873" y="265.78759" style="fill: #ff0000; stroke: #ff0000"/>
     <use xlink:href="#mb679cedc3f" x="279.51744" y="269.292615" style="fill: #ff0000; stroke: #ff0000"/>
     <use xlink:href="#mb679cedc3f" x="297.721006" y="273.77083" style="fill: #ff0000; stroke: #ff0000"/>
     <use xlink:href="#mb679cedc3f" x="315.924573" y="276.731737" style="fill: #ff0000; stroke: #ff0000"/>
     <use xlink:href="#mb679cedc3f" x="334.12814" y="279.819201" style="fill: #ff0000; stroke: #ff0000"/>
     <use xlink:href="#mb679cedc3f" x="352.331707" y="282.543631" style="fill: #ff0000; stroke: #ff0000"/>
     <use xlink:href="#mb679cedc3f" x="370.535273" y="285.342533" style="fill: #ff0000; stroke: #ff0000"/>
     <use xlink:href="#mb679cedc3f" x="388.73884" y="286.541913" style="fill: #ff0000; stroke: #ff0000"/>
     <use xlink:href="#mb679cedc3f" x="406.942407" y="288.901875" style="fill: #ff0000; stroke: #ff0000"/>
    </g>
   </g>
   <g id="line2d_16">
    <path d="M 61.074638 148.985331 
L 79.278205 145.001113 
L 97.481772 189.112296 
L 115.685339 212.399664 
L 133.888906 215.436236 
L 152.092472 230.219497 
L 170.296039 245.120369 
L 188.499606 229.929078 
L 206.703173 249.52126 
L 224.906739 247.025164 
L 243.110306 254.853895 
L 261.313873 247.312484 
L 279.51744 258.784333 
L 297.721006 262.144823 
L 315.924573 258.690829 
L 334.12814 269.262366 
L 352.331707 269.245519 
L 370.535273 271.712187 
L 388.73884 250.004897 
L 406.942407 266.903004 
" clip-path="url(#pa85ab026ed)" style="fill: none; stroke: #0000ff; stroke-width: 1.5; stroke-linecap: square"/>
    <defs>
     <path id="ma53efd6fcb" d="M 0 3 
C 0.795609 3 1.55874 2.683901 2.12132 2.12132 
C 2.683901 1.55874 3 0.795609 3 0 
C 3 -0.795609 2.683901 -1.55874 2.12132 -2.12132 
C 1.55874 -2.683901 0.795609 -3 0 -3 
C -0.795609 -3 -1.55874 -2.683901 -2.12132 -2.12132 
C -2.683901 -1.55874 -3 -0.795609 -3 0 
C -3 0.795609 -2.683901 1.55874 -2.12132 2.12132 
C -1.55874 2.683901 -0.795609 3 0 3 
z
" style="stroke: #0000ff"/>
    </defs>
    <g clip-path="url(#pa85ab026ed)">
     <use xlink:href="#ma53efd6fcb" x="61.074638" y="148.985331" style="fill: #0000ff; stroke: #0000ff"/>
     <use xlink:href="#ma53efd6fcb" x="79.278205" y="145.001113" style="fill: #0000ff; stroke: #0000ff"/>
     <use xlink:href="#ma53efd6fcb" x="97.481772" y="189.112296" style="fill: #0000ff; stroke: #0000ff"/>
     <use xlink:href="#ma53efd6fcb" x="115.685339" y="212.399664" style="fill: #0000ff; stroke: #0000ff"/>
     <use xlink:href="#ma53efd6fcb" x="133.888906" y="215.436236" style="fill: #0000ff; stroke: #0000ff"/>
     <use xlink:href="#ma53efd6fcb" x="152.092472" y="230.219497" style="fill: #0000ff; stroke: #0000ff"/>
     <use xlink:href="#ma53efd6fcb" x="170.296039" y="245.120369" style="fill: #0000ff; stroke: #0000ff"/>
     <use xlink:href="#ma53efd6fcb" x="188.499606" y="229.929078" style="fill: #0000ff; stroke: #0000ff"/>
     <use xlink:href="#ma53efd6fcb" x="206.703173" y="249.52126" style="fill: #0000ff; stroke: #0000ff"/>
     <use xlink:href="#ma53efd6fcb" x="224.906739" y="247.025164" style="fill: #0000ff; stroke: #0000ff"/>
     <use xlink:href="#ma53efd6fcb" x="243.110306" y="254.853895" style="fill: #0000ff; stroke: #0000ff"/>
     <use xlink:href="#ma53efd6fcb" x="261.313873" y="247.312484" style="fill: #0000ff; stroke: #0000ff"/>
     <use xlink:href="#ma53efd6fcb" x="279.51744" y="258.784333" style="fill: #0000ff; stroke: #0000ff"/>
     <use xlink:href="#ma53efd6fcb" x="297.721006" y="262.144823" style="fill: #0000ff; stroke: #0000ff"/>
     <use xlink:href="#ma53efd6fcb" x="315.924573" y="258.690829" style="fill: #0000ff; stroke: #0000ff"/>
     <use xlink:href="#ma53efd6fcb" x="334.12814" y="269.262366" style="fill: #0000ff; stroke: #0000ff"/>
     <use xlink:href="#ma53efd6fcb" x="352.331707" y="269.245519" style="fill: #0000ff; stroke: #0000ff"/>
     <use xlink:href="#ma53efd6fcb" x="370.535273" y="271.712187" style="fill: #0000ff; stroke: #0000ff"/>
     <use xlink:href="#ma53efd6fcb" x="388.73884" y="250.004897" style="fill: #0000ff; stroke: #0000ff"/>
     <use xlink:href="#ma53efd6fcb" x="406.942407" y="266.903004" style="fill: #0000ff; stroke: #0000ff"/>
    </g>
   </g>
   <g id="line2d_17">
    <path d="M 370.535273 301.501875 
L 370.535273 24.301875 
" clip-path="url(#pa85ab026ed)" style="fill: none; stroke-dasharray: 5.55,2.4; stroke-dashoffset: 0; stroke: #008000; stroke-width: 1.5"/>
   </g>
   <g id="patch_3">
    <path d="M 43.78125 301.501875 
L 43.78125 24.301875 
" style="fill: none; stroke: #000000; stroke-width: 0.8; stroke-linejoin: miter; stroke-linecap: square"/>
   </g>
   <g id="patch_4">
    <path d="M 424.235795 301.501875 
L 424.235795 24.301875 
" style="fill: none; stroke: #000000; stroke-width: 0.8; stroke-linejoin: miter; stroke-linecap: square"/>
   </g>
   <g id="patch_5">
    <path d="M 43.78125 301.501875 
L 424.235795 301.501875 
" style="fill: none; stroke: #000000; stroke-width: 0.8; stroke-linejoin: miter; stroke-linecap: square"/>
   </g>
   <g id="patch_6">
    <path d="M 43.78125 24.301875 
L 424.235795 24.301875 
" style="fill: none; stroke: #000000; stroke-width: 0.8; stroke-linejoin: miter; stroke-linecap: square"/>
   </g>
   <g id="text_17">
    <!-- Evolução da Loss por Época -->
    <g transform="translate(150.409773 18.301875) scale(0.12 -0.12)">
     <defs>
      <path id="DejaVuSans-45" d="M 628 4666 
L 3578 4666 
L 3578 4134 
L 1259 4134 
L 1259 2753 
L 3481 2753 
L 3481 2222 
L 1259 2222 
L 1259 531 
L 3634 531 
L 3634 0 
L 628 0 
L 628 4666 
z
" transform="scale(0.015625)"/>
      <path id="DejaVuSans-76" d="M 191 3500 
L 800 3500 
L 1894 563 
L 2988 3500 
L 3597 3500 
L 2284 0 
L 1503 0 
L 191 3500 
z
" transform="scale(0.015625)"/>
      <path id="DejaVuSans-6c" d="M 603 4863 
L 1178 4863 
L 1178 0 
L 603 0 
L 603 4863 
z
" transform="scale(0.015625)"/>
      <path id="DejaVuSans-75" d="M 544 1381 
L 544 3500 
L 1119 3500 
L 1119 1403 
Q 1119 906 1312 657 
Q 1506 409 1894 409 
Q 2359 409 2629 706 
Q 2900 1003 2900 1516 
L 2900 3500 
L 3475 3500 
L 3475 0 
L 2900 0 
L 2900 538 
Q 2691 219 2414 64 
Q 2138 -91 1772 -91 
Q 1169 -91 856 284 
Q 544 659 544 1381 
z
M 1991 3584 
L 1991 3584 
z
" transform="scale(0.015625)"/>
      <path id="DejaVuSans-e7" d="M 3122 3366 
L 3122 2828 
Q 2878 2963 2633 3030 
Q 2388 3097 2138 3097 
Q 1578 3097 1268 2742 
Q 959 2388 959 1747 
Q 959 1106 1268 751 
Q 1578 397 2138 397 
Q 2388 397 2633 464 
Q 2878 531 3122 666 
L 3122 134 
Q 2881 22 2623 -34 
Q 2366 -91 2075 -91 
Q 1284 -91 818 406 
Q 353 903 353 1747 
Q 353 2603 823 3093 
Q 1294 3584 2113 3584 
Q 2378 3584 2631 3529 
Q 2884 3475 3122 3366 
z
M 2311 0 
Q 2482 -194 2566 -358 
Q 2651 -522 2651 -672 
Q 2651 -950 2463 -1092 
Q 2276 -1234 1907 -1234 
Q 1764 -1234 1628 -1215 
Q 1492 -1197 1357 -1159 
L 1357 -750 
Q 1464 -803 1579 -826 
Q 1695 -850 1842 -850 
Q 2026 -850 2120 -775 
Q 2214 -700 2214 -556 
Q 2214 -463 2146 -327 
Q 2079 -191 1939 0 
L 2311 0 
z
" transform="scale(0.015625)"/>
      <path id="DejaVuSans-e3" d="M 2194 1759 
Q 1497 1759 1228 1600 
Q 959 1441 959 1056 
Q 959 750 1161 570 
Q 1363 391 1709 391 
Q 2188 391 2477 730 
Q 2766 1069 2766 1631 
L 2766 1759 
L 2194 1759 
z
M 3341 1997 
L 3341 0 
L 2766 0 
L 2766 531 
Q 2569 213 2275 61 
Q 1981 -91 1556 -91 
Q 1019 -91 701 211 
Q 384 513 384 1019 
Q 384 1609 779 1909 
Q 1175 2209 1959 2209 
L 2766 2209 
L 2766 2266 
Q 2766 2663 2505 2880 
Q 2244 3097 1772 3097 
Q 1472 3097 1187 3025 
Q 903 2953 641 2809 
L 641 3341 
Q 956 3463 1253 3523 
Q 1550 3584 1831 3584 
Q 2591 3584 2966 3190 
Q 3341 2797 3341 1997 
z
M 1844 4281 
L 1665 4453 
Q 1597 4516 1545 4545 
Q 1494 4575 1453 4575 
Q 1334 4575 1278 4461 
Q 1222 4347 1215 4091 
L 825 4091 
Q 831 4513 990 4742 
Q 1150 4972 1434 4972 
Q 1553 4972 1653 4928 
Q 1753 4884 1869 4781 
L 2047 4609 
Q 2115 4547 2167 4517 
Q 2219 4488 2259 4488 
Q 2378 4488 2434 4602 
Q 2490 4716 2497 4972 
L 2887 4972 
Q 2881 4550 2721 4320 
Q 2562 4091 2278 4091 
Q 2159 4091 2059 4134 
Q 1959 4178 1844 4281 
z
" transform="scale(0.015625)"/>
      <path id="DejaVuSans-20" transform="scale(0.015625)"/>
      <path id="DejaVuSans-64" d="M 2906 2969 
L 2906 4863 
L 3481 4863 
L 3481 0 
L 2906 0 
L 2906 525 
Q 2725 213 2448 61 
Q 2172 -91 1784 -91 
Q 1150 -91 751 415 
Q 353 922 353 1747 
Q 353 2572 751 3078 
Q 1150 3584 1784 3584 
Q 2172 3584 2448 3432 
Q 2725 3281 2906 2969 
z
M 947 1747 
Q 947 1113 1208 752 
Q 1469 391 1925 391 
Q 2381 391 2643 752 
Q 2906 1113 2906 1747 
Q 2906 2381 2643 2742 
Q 2381 3103 1925 3103 
Q 1469 3103 1208 2742 
Q 947 2381 947 1747 
z
" transform="scale(0.015625)"/>
      <path id="DejaVuSans-72" d="M 2631 2963 
Q 2534 3019 2420 3045 
Q 2306 3072 2169 3072 
Q 1681 3072 1420 2755 
Q 1159 2438 1159 1844 
L 1159 0 
L 581 0 
L 581 3500 
L 1159 3500 
L 1159 2956 
Q 1341 3275 1631 3429 
Q 1922 3584 2338 3584 
Q 2397 3584 2469 3576 
Q 2541 3569 2628 3553 
L 2631 2963 
z
" transform="scale(0.015625)"/>
     </defs>
     <use xlink:href="#DejaVuSans-45"/>
     <use xlink:href="#DejaVuSans-76" transform="translate(63.183594 0)"/>
     <use xlink:href="#DejaVuSans-6f" transform="translate(122.363281 0)"/>
     <use xlink:href="#DejaVuSans-6c" transform="translate(183.544922 0)"/>
     <use xlink:href="#DejaVuSans-75" transform="translate(211.328125 0)"/>
     <use xlink:href="#DejaVuSans-e7" transform="translate(274.707031 0)"/>
     <use xlink:href="#DejaVuSans-e3" transform="translate(329.6875 0)"/>
     <use xlink:href="#DejaVuSans-6f" transform="translate(390.966797 0)"/>
     <use xlink:href="#DejaVuSans-20" transform="translate(452.148438 0)"/>
     <use xlink:href="#DejaVuSans-64" transform="translate(483.935547 0)"/>
     <use xlink:href="#DejaVuSans-61" transform="translate(547.412109 0)"/>
     <use xlink:href="#DejaVuSans-20" transform="translate(608.691406 0)"/>
     <use xlink:href="#DejaVuSans-4c" transform="translate(640.478516 0)"/>
     <use xlink:href="#DejaVuSans-6f" transform="translate(694.441406 0)"/>
     <use xlink:href="#DejaVuSans-73" transform="translate(755.623047 0)"/>
     <use xlink:href="#DejaVuSans-73" transform="translate(807.722656 0)"/>
     <use xlink:href="#DejaVuSans-20" transform="translate(859.822266 0)"/>
     <use xlink:href="#DejaVuSans-70" transform="translate(891.609375 0)"/>
     <use xlink:href="#DejaVuSans-6f" transform="translate(955.085938 0)"/>
     <use xlink:href="#DejaVuSans-72" transform="translate(1016.267578 0)"/>
     <use xlink:href="#DejaVuSans-20" transform="translate(1057.380859 0)"/>
     <use xlink:href="#DejaVuSans-c9" transform="translate(1089.167969 0)"/>
     <use xlink:href="#DejaVuSans-70" transform="translate(1152.351562 0)"/>
     <use xlink:href="#DejaVuSans-6f" transform="translate(1215.828125 0)"/>
     <use xlink:href="#DejaVuSans-63" transform="translate(1277.009766 0)"/>
     <use xlink:href="#DejaVuSans-61" transform="translate(1331.990234 0)"/>
    </g>
   </g>
   <g id="legend_1">
    <g id="patch_7">
     <path d="M 152.635085 78.008125 
L 315.38196 78.008125 
Q 317.38196 78.008125 317.38196 76.008125 
L 317.38196 31.301875 
Q 317.38196 29.301875 315.38196 29.301875 
L 152.635085 29.301875 
Q 150.635085 29.301875 150.635085 31.301875 
L 150.635085 76.008125 
Q 150.635085 78.008125 152.635085 78.008125 
z
" style="fill: #ffffff; opacity: 0.8; stroke: #cccccc; stroke-linejoin: miter"/>
    </g>
    <g id="line2d_18">
     <path d="M 154.635085 37.400313 
L 164.635085 37.400313 
L 174.635085 37.400313 
" style="fill: none; stroke: #ff0000; stroke-width: 1.5; stroke-linecap: square"/>
     <g>
      <use xlink:href="#mb679cedc3f" x="164.635085" y="37.400313" style="fill: #ff0000; stroke: #ff0000"/>
     </g>
    </g>
    <g id="text_18">
     <!-- Loss de Treinamento -->
     <g transform="translate(182.635085 40.900313) scale(0.1 -0.1)">
      <defs>
       <path id="DejaVuSans-65" d="M 3597 1894 
L 3597 1613 
L 953 1613 
Q 991 1019 1311 708 
Q 1631 397 2203 397 
Q 2534 397 2845 478 
Q 3156 559 3463 722 
L 3463 178 
Q 3153 47 2828 -22 
Q 2503 -91 2169 -91 
Q 1331 -91 842 396 
Q 353 884 353 1716 
Q 353 2575 817 3079 
Q 1281 3584 2069 3584 
Q 2775 3584 3186 3129 
Q 3597 2675 3597 1894 
z
M 3022 2063 
Q 3016 2534 2758 2815 
Q 2500 3097 2075 3097 
Q 1594 3097 1305 2825 
Q 1016 2553 972 2059 
L 3022 2063 
z
" transform="scale(0.015625)"/>
       <path id="DejaVuSans-54" d="M -19 4666 
L 3928 4666 
L 3928 4134 
L 2272 4134 
L 2272 0 
L 1638 0 
L 1638 4134 
L -19 4134 
L -19 4666 
z
" transform="scale(0.015625)"/>
       <path id="DejaVuSans-69" d="M 603 3500 
L 1178 3500 
L 1178 0 
L 603 0 
L 603 3500 
z
M 603 4863 
L 1178 4863 
L 1178 4134 
L 603 4134 
L 603 4863 
z
" transform="scale(0.015625)"/>
       <path id="DejaVuSans-6e" d="M 3513 2113 
L 3513 0 
L 2938 0 
L 2938 2094 
Q 2938 2591 2744 2837 
Q 2550 3084 2163 3084 
Q 1697 3084 1428 2787 
Q 1159 2491 1159 1978 
L 1159 0 
L 581 0 
L 581 3500 
L 1159 3500 
L 1159 2956 
Q 1366 3272 1645 3428 
Q 1925 3584 2291 3584 
Q 2894 3584 3203 3211 
Q 3513 2838 3513 2113 
z
" transform="scale(0.015625)"/>
       <path id="DejaVuSans-6d" d="M 3328 2828 
Q 3544 3216 3844 3400 
Q 4144 3584 4550 3584 
Q 5097 3584 5394 3201 
Q 5691 2819 5691 2113 
L 5691 0 
L 5113 0 
L 5113 2094 
Q 5113 2597 4934 2840 
Q 4756 3084 4391 3084 
Q 3944 3084 3684 2787 
Q 3425 2491 3425 1978 
L 3425 0 
L 2847 0 
L 2847 2094 
Q 2847 2600 2669 2842 
Q 2491 3084 2119 3084 
Q 1678 3084 1418 2786 
Q 1159 2488 1159 1978 
L 1159 0 
L 581 0 
L 581 3500 
L 1159 3500 
L 1159 2956 
Q 1356 3278 1631 3431 
Q 1906 3584 2284 3584 
Q 2666 3584 2933 3390 
Q 3200 3197 3328 2828 
z
" transform="scale(0.015625)"/>
       <path id="DejaVuSans-74" d="M 1172 4494 
L 1172 3500 
L 2356 3500 
L 2356 3053 
L 1172 3053 
L 1172 1153 
Q 1172 725 1289 603 
Q 1406 481 1766 481 
L 2356 481 
L 2356 0 
L 1766 0 
Q 1100 0 847 248 
Q 594 497 594 1153 
L 594 3053 
L 172 3053 
L 172 3500 
L 594 3500 
L 594 4494 
L 1172 4494 
z
" transform="scale(0.015625)"/>
      </defs>
      <use xlink:href="#DejaVuSans-4c"/>
      <use xlink:href="#DejaVuSans-6f" transform="translate(53.962891 0)"/>
      <use xlink:href="#DejaVuSans-73" transform="translate(115.144531 0)"/>
      <use xlink:href="#DejaVuSans-73" transform="translate(167.244141 0)"/>
      <use xlink:href="#DejaVuSans-20" transform="translate(219.34375 0)"/>
      <use xlink:href="#DejaVuSans-64" transform="translate(251.130859 0)"/>
      <use xlink:href="#DejaVuSans-65" transform="translate(314.607422 0)"/>
      <use xlink:href="#DejaVuSans-20" transform="translate(376.130859 0)"/>
      <use xlink:href="#DejaVuSans-54" transform="translate(407.917969 0)"/>
      <use xlink:href="#DejaVuSans-72" transform="translate(454.251953 0)"/>
      <use xlink:href="#DejaVuSans-65" transform="translate(493.115234 0)"/>
      <use xlink:href="#DejaVuSans-69" transform="translate(554.638672 0)"/>
      <use xlink:href="#DejaVuSans-6e" transform="translate(582.421875 0)"/>
      <use xlink:href="#DejaVuSans-61" transform="translate(645.800781 0)"/>
      <use xlink:href="#DejaVuSans-6d" transform="translate(707.080078 0)"/>
      <use xlink:href="#DejaVuSans-65" transform="translate(804.492188 0)"/>
      <use xlink:href="#DejaVuSans-6e" transform="translate(866.015625 0)"/>
      <use xlink:href="#DejaVuSans-74" transform="translate(929.394531 0)"/>
      <use xlink:href="#DejaVuSans-6f" transform="translate(968.603516 0)"/>
     </g>
    </g>
    <g id="line2d_19">
     <path d="M 154.635085 52.097188 
L 164.635085 52.097188 
L 174.635085 52.097188 
" style="fill: none; stroke: #0000ff; stroke-width: 1.5; stroke-linecap: square"/>
     <g>
      <use xlink:href="#ma53efd6fcb" x="164.635085" y="52.097188" style="fill: #0000ff; stroke: #0000ff"/>
     </g>
    </g>
    <g id="text_19">
     <!-- Loss de Validação -->
     <g transform="translate(182.635085 55.597188) scale(0.1 -0.1)">
      <defs>
       <path id="DejaVuSans-56" d="M 1831 0 
L 50 4666 
L 709 4666 
L 2188 738 
L 3669 4666 
L 4325 4666 
L 2547 0 
L 1831 0 
z
" transform="scale(0.015625)"/>
      </defs>
      <use xlink:href="#DejaVuSans-4c"/>
      <use xlink:href="#DejaVuSans-6f" transform="translate(53.962891 0)"/>
      <use xlink:href="#DejaVuSans-73" transform="translate(115.144531 0)"/>
      <use xlink:href="#DejaVuSans-73" transform="translate(167.244141 0)"/>
      <use xlink:href="#DejaVuSans-20" transform="translate(219.34375 0)"/>
      <use xlink:href="#DejaVuSans-64" transform="translate(251.130859 0)"/>
      <use xlink:href="#DejaVuSans-65" transform="translate(314.607422 0)"/>
      <use xlink:href="#DejaVuSans-20" transform="translate(376.130859 0)"/>
      <use xlink:href="#DejaVuSans-56" transform="translate(407.917969 0)"/>
      <use xlink:href="#DejaVuSans-61" transform="translate(468.576172 0)"/>
      <use xlink:href="#DejaVuSans-6c" transform="translate(529.855469 0)"/>
      <use xlink:href="#DejaVuSans-69" transform="translate(557.638672 0)"/>
      <use xlink:href="#DejaVuSans-64" transform="translate(585.421875 0)"/>
      <use xlink:href="#DejaVuSans-61" transform="translate(648.898438 0)"/>
      <use xlink:href="#DejaVuSans-e7" transform="translate(710.177734 0)"/>
      <use xlink:href="#DejaVuSans-e3" transform="translate(765.158203 0)"/>
      <use xlink:href="#DejaVuSans-6f" transform="translate(826.4375 0)"/>
     </g>
    </g>
    <g id="line2d_20">
     <path d="M 154.635085 68.428438 
L 164.635085 68.428438 
L 174.635085 68.428438 
" style="fill: none; stroke-dasharray: 5.55,2.4; stroke-dashoffset: 0; stroke: #008000; stroke-width: 1.5"/>
    </g>
    <g id="text_20">
     <!-- Melhor Modelo (Época 18) -->
     <g transform="translate(182.635085 71.928438) scale(0.1 -0.1)">
      <defs>
       <path id="DejaVuSans-4d" d="M 628 4666 
L 1569 4666 
L 2759 1491 
L 3956 4666 
L 4897 4666 
L 4897 0 
L 4281 0 
L 4281 4097 
L 3078 897 
L 2444 897 
L 1241 4097 
L 1241 0 
L 628 0 
L 628 4666 
z
" transform="scale(0.015625)"/>
       <path id="DejaVuSans-68" d="M 3513 2113 
L 3513 0 
L 2938 0 
L 2938 2094 
Q 2938 2591 2744 2837 
Q 2550 3084 2163 3084 
Q 1697 3084 1428 2787 
Q 1159 2491 1159 1978 
L 1159 0 
L 581 0 
L 581 4863 
L 1159 4863 
L 1159 2956 
Q 1366 3272 1645 3428 
Q 1925 3584 2291 3584 
Q 2894 3584 3203 3211 
Q 3513 2838 3513 2113 
z
" transform="scale(0.015625)"/>
       <path id="DejaVuSans-28" d="M 1984 4856 
Q 1566 4138 1362 3434 
Q 1159 2731 1159 2009 
Q 1159 1288 1364 580 
Q 1569 -128 1984 -844 
L 1484 -844 
Q 1016 -109 783 600 
Q 550 1309 550 2009 
Q 550 2706 781 3412 
Q 1013 4119 1484 4856 
L 1984 4856 
z
" transform="scale(0.015625)"/>
       <path id="DejaVuSans-29" d="M 513 4856 
L 1013 4856 
Q 1481 4119 1714 3412 
Q 1947 2706 1947 2009 
Q 1947 1309 1714 600 
Q 1481 -109 1013 -844 
L 513 -844 
Q 928 -128 1133 580 
Q 1338 1288 1338 2009 
Q 1338 2731 1133 3434 
Q 928 4138 513 4856 
z
" transform="scale(0.015625)"/>
      </defs>
      <use xlink:href="#DejaVuSans-4d"/>
      <use xlink:href="#DejaVuSans-65" transform="translate(86.279297 0)"/>
      <use xlink:href="#DejaVuSans-6c" transform="translate(147.802734 0)"/>
      <use xlink:href="#DejaVuSans-68" transform="translate(175.585938 0)"/>
      <use xlink:href="#DejaVuSans-6f" transform="translate(238.964844 0)"/>
      <use xlink:href="#DejaVuSans-72" transform="translate(300.146484 0)"/>
      <use xlink:href="#DejaVuSans-20" transform="translate(341.259766 0)"/>
      <use xlink:href="#DejaVuSans-4d" transform="translate(373.046875 0)"/>
      <use xlink:href="#DejaVuSans-6f" transform="translate(459.326172 0)"/>
      <use xlink:href="#DejaVuSans-64" transform="translate(520.507812 0)"/>
      <use xlink:href="#DejaVuSans-65" transform="translate(583.984375 0)"/>
      <use xlink:href="#DejaVuSans-6c" transform="translate(645.507812 0)"/>
      <use xlink:href="#DejaVuSans-6f" transform="translate(673.291016 0)"/>
      <use xlink:href="#DejaVuSans-20" transform="translate(734.472656 0)"/>
      <use xlink:href="#DejaVuSans-28" transform="translate(766.259766 0)"/>
      <use xlink:href="#DejaVuSans-c9" transform="translate(805.273438 0)"/>
      <use xlink:href="#DejaVuSans-70" transform="translate(868.457031 0)"/>
      <use xlink:href="#DejaVuSans-6f" transform="translate(931.933594 0)"/>
      <use xlink:href="#DejaVuSans-63" transform="translate(993.115234 0)"/>
      <use xlink:href="#DejaVuSans-61" transform="translate(1048.095703 0)"/>
      <use xlink:href="#DejaVuSans-20" transform="translate(1109.375 0)"/>
      <use xlink:href="#DejaVuSans-31" transform="translate(1141.162109 0)"/>
      <use xlink:href="#DejaVuSans-38" transform="translate(1204.785156 0)"/>
      <use xlink:href="#DejaVuSans-29" transform="translate(1268.408203 0)"/>
     </g>
    </g>
   </g>
  </g>
  <g id="axes_2">
   <g id="patch_8">
    <path d="M 500.326705 301.501875 
L 880.78125 301.501875 
L 880.78125 24.301875 
L 500.326705 24.301875 
z
" style="fill: #ffffff"/>
   </g>
   <g id="matplotlib.axis_3">
    <g id="xtick_9">
     <g id="line2d_21">
      <g>
       <use xlink:href="#mf7cc138d1c" x="517.620093" y="301.501875" style="stroke: #000000; stroke-width: 0.8"/>
      </g>
     </g>
     <g id="text_21">
      <!-- 0.0 -->
      <g transform="translate(509.66853 316.100313) scale(0.1 -0.1)">
       <use xlink:href="#DejaVuSans-30"/>
       <use xlink:href="#DejaVuSans-2e" transform="translate(63.623047 0)"/>
       <use xlink:href="#DejaVuSans-30" transform="translate(95.410156 0)"/>
      </g>
     </g>
    </g>
    <g id="xtick_10">
     <g id="line2d_22">
      <g>
       <use xlink:href="#mf7cc138d1c" x="563.12901" y="301.501875" style="stroke: #000000; stroke-width: 0.8"/>
      </g>
     </g>
     <g id="text_22">
      <!-- 2.5 -->
      <g transform="translate(555.177447 316.100313) scale(0.1 -0.1)">
       <use xlink:href="#DejaVuSans-32"/>
       <use xlink:href="#DejaVuSans-2e" transform="translate(63.623047 0)"/>
       <use xlink:href="#DejaVuSans-35" transform="translate(95.410156 0)"/>
      </g>
     </g>
    </g>
    <g id="xtick_11">
     <g id="line2d_23">
      <g>
       <use xlink:href="#mf7cc138d1c" x="608.637927" y="301.501875" style="stroke: #000000; stroke-width: 0.8"/>
      </g>
     </g>
     <g id="text_23">
      <!-- 5.0 -->
      <g transform="translate(600.686364 316.100313) scale(0.1 -0.1)">
       <use xlink:href="#DejaVuSans-35"/>
       <use xlink:href="#DejaVuSans-2e" transform="translate(63.623047 0)"/>
       <use xlink:href="#DejaVuSans-30" transform="translate(95.410156 0)"/>
      </g>
     </g>
    </g>
    <g id="xtick_12">
     <g id="line2d_24">
      <g>
       <use xlink:href="#mf7cc138d1c" x="654.146844" y="301.501875" style="stroke: #000000; stroke-width: 0.8"/>
      </g>
     </g>
     <g id="text_24">
      <!-- 7.5 -->
      <g transform="translate(646.195281 316.100313) scale(0.1 -0.1)">
       <use xlink:href="#DejaVuSans-37"/>
       <use xlink:href="#DejaVuSans-2e" transform="translate(63.623047 0)"/>
       <use xlink:href="#DejaVuSans-35" transform="translate(95.410156 0)"/>
      </g>
     </g>
    </g>
    <g id="xtick_13">
     <g id="line2d_25">
      <g>
       <use xlink:href="#mf7cc138d1c" x="699.655761" y="301.501875" style="stroke: #000000; stroke-width: 0.8"/>
      </g>
     </g>
     <g id="text_25">
      <!-- 10.0 -->
      <g transform="translate(688.522948 316.100313) scale(0.1 -0.1)">
       <use xlink:href="#DejaVuSans-31"/>
       <use xlink:href="#DejaVuSans-30" transform="translate(63.623047 0)"/>
       <use xlink:href="#DejaVuSans-2e" transform="translate(127.246094 0)"/>
       <use xlink:href="#DejaVuSans-30" transform="translate(159.033203 0)"/>
      </g>
     </g>
    </g>
    <g id="xtick_14">
     <g id="line2d_26">
      <g>
       <use xlink:href="#mf7cc138d1c" x="745.164678" y="301.501875" style="stroke: #000000; stroke-width: 0.8"/>
      </g>
     </g>
     <g id="text_26">
      <!-- 12.5 -->
      <g transform="translate(734.031865 316.100313) scale(0.1 -0.1)">
       <use xlink:href="#DejaVuSans-31"/>
       <use xlink:href="#DejaVuSans-32" transform="translate(63.623047 0)"/>
       <use xlink:href="#DejaVuSans-2e" transform="translate(127.246094 0)"/>
       <use xlink:href="#DejaVuSans-35" transform="translate(159.033203 0)"/>
      </g>
     </g>
    </g>
    <g id="xtick_15">
     <g id="line2d_27">
      <g>
       <use xlink:href="#mf7cc138d1c" x="790.673594" y="301.501875" style="stroke: #000000; stroke-width: 0.8"/>
      </g>
     </g>
     <g id="text_27">
      <!-- 15.0 -->
      <g transform="translate(779.540782 316.100313) scale(0.1 -0.1)">
       <use xlink:href="#DejaVuSans-31"/>
       <use xlink:href="#DejaVuSans-35" transform="translate(63.623047 0)"/>
       <use xlink:href="#DejaVuSans-2e" transform="translate(127.246094 0)"/>
       <use xlink:href="#DejaVuSans-30" transform="translate(159.033203 0)"/>
      </g>
     </g>
    </g>
    <g id="xtick_16">
     <g id="line2d_28">
      <g>
       <use xlink:href="#mf7cc138d1c" x="836.182511" y="301.501875" style="stroke: #000000; stroke-width: 0.8"/>
      </g>
     </g>
     <g id="text_28">
      <!-- 17.5 -->
      <g transform="translate(825.049699 316.100313) scale(0.1 -0.1)">
       <use xlink:href="#DejaVuSans-31"/>
       <use xlink:href="#DejaVuSans-37" transform="translate(63.623047 0)"/>
       <use xlink:href="#DejaVuSans-2e" transform="translate(127.246094 0)"/>
       <use xlink:href="#DejaVuSans-35" transform="translate(159.033203 0)"/>
      </g>
     </g>
    </g>
    <g id="text_29">
     <!-- Épocas -->
     <g transform="translate(672.74304 331.431563) scale(0.1 -0.1)">
      <use xlink:href="#DejaVuSans-c9"/>
      <use xlink:href="#DejaVuSans-70" transform="translate(63.183594 0)"/>
      <use xlink:href="#DejaVuSans-6f" transform="translate(126.660156 0)"/>
      <use xlink:href="#DejaVuSans-63" transform="translate(187.841797 0)"/>
      <use xlink:href="#DejaVuSans-61" transform="translate(242.822266 0)"/>
      <use xlink:href="#DejaVuSans-73" transform="translate(304.101562 0)"/>
     </g>
    </g>
   </g>
   <g id="matplotlib.axis_4">
    <g id="ytick_7">
     <g id="line2d_29">
      <g>
       <use xlink:href="#me4523247b2" x="500.326705" y="275.50746" style="stroke: #000000; stroke-width: 0.8"/>
      </g>
     </g>
     <g id="text_30">
      <!-- 0.4 -->
      <g transform="translate(477.42358 279.306679) scale(0.1 -0.1)">
       <use xlink:href="#DejaVuSans-30"/>
       <use xlink:href="#DejaVuSans-2e" transform="translate(63.623047 0)"/>
       <use xlink:href="#DejaVuSans-34" transform="translate(95.410156 0)"/>
      </g>
     </g>
    </g>
    <g id="ytick_8">
     <g id="line2d_30">
      <g>
       <use xlink:href="#me4523247b2" x="500.326705" y="217.257695" style="stroke: #000000; stroke-width: 0.8"/>
      </g>
     </g>
     <g id="text_31">
      <!-- 0.5 -->
      <g transform="translate(477.42358 221.056914) scale(0.1 -0.1)">
       <use xlink:href="#DejaVuSans-30"/>
       <use xlink:href="#DejaVuSans-2e" transform="translate(63.623047 0)"/>
       <use xlink:href="#DejaVuSans-35" transform="translate(95.410156 0)"/>
      </g>
     </g>
    </g>
    <g id="ytick_9">
     <g id="line2d_31">
      <g>
       <use xlink:href="#me4523247b2" x="500.326705" y="159.00793" style="stroke: #000000; stroke-width: 0.8"/>
      </g>
     </g>
     <g id="text_32">
      <!-- 0.6 -->
      <g transform="translate(477.42358 162.807149) scale(0.1 -0.1)">
       <use xlink:href="#DejaVuSans-30"/>
       <use xlink:href="#DejaVuSans-2e" transform="translate(63.623047 0)"/>
       <use xlink:href="#DejaVuSans-36" transform="translate(95.410156 0)"/>
      </g>
     </g>
    </g>
    <g id="ytick_10">
     <g id="line2d_32">
      <g>
       <use xlink:href="#me4523247b2" x="500.326705" y="100.758165" style="stroke: #000000; stroke-width: 0.8"/>
      </g>
     </g>
     <g id="text_33">
      <!-- 0.7 -->
      <g transform="translate(477.42358 104.557384) scale(0.1 -0.1)">
       <use xlink:href="#DejaVuSans-30"/>
       <use xlink:href="#DejaVuSans-2e" transform="translate(63.623047 0)"/>
       <use xlink:href="#DejaVuSans-37" transform="translate(95.410156 0)"/>
      </g>
     </g>
    </g>
    <g id="ytick_11">
     <g id="line2d_33">
      <g>
       <use xlink:href="#me4523247b2" x="500.326705" y="42.5084" style="stroke: #000000; stroke-width: 0.8"/>
      </g>
     </g>
     <g id="text_34">
      <!-- 0.8 -->
      <g transform="translate(477.42358 46.307619) scale(0.1 -0.1)">
       <use xlink:href="#DejaVuSans-30"/>
       <use xlink:href="#DejaVuSans-2e" transform="translate(63.623047 0)"/>
       <use xlink:href="#DejaVuSans-38" transform="translate(95.410156 0)"/>
      </g>
     </g>
    </g>
    <g id="text_35">
     <!-- Acurácia -->
     <g transform="translate(471.343892 184.474531) rotate(-90) scale(0.1 -0.1)">
      <defs>
       <path id="DejaVuSans-41" d="M 2188 4044 
L 1331 1722 
L 3047 1722 
L 2188 4044 
z
M 1831 4666 
L 2547 4666 
L 4325 0 
L 3669 0 
L 3244 1197 
L 1141 1197 
L 716 0 
L 50 0 
L 1831 4666 
z
" transform="scale(0.015625)"/>
       <path id="DejaVuSans-e1" d="M 2194 1759 
Q 1497 1759 1228 1600 
Q 959 1441 959 1056 
Q 959 750 1161 570 
Q 1363 391 1709 391 
Q 2188 391 2477 730 
Q 2766 1069 2766 1631 
L 2766 1759 
L 2194 1759 
z
M 3341 1997 
L 3341 0 
L 2766 0 
L 2766 531 
Q 2569 213 2275 61 
Q 1981 -91 1556 -91 
Q 1019 -91 701 211 
Q 384 513 384 1019 
Q 384 1609 779 1909 
Q 1175 2209 1959 2209 
L 2766 2209 
L 2766 2266 
Q 2766 2663 2505 2880 
Q 2244 3097 1772 3097 
Q 1472 3097 1187 3025 
Q 903 2953 641 2809 
L 641 3341 
Q 956 3463 1253 3523 
Q 1550 3584 1831 3584 
Q 2591 3584 2966 3190 
Q 3341 2797 3341 1997 
z
M 2290 5119 
L 2912 5119 
L 1894 3944 
L 1415 3944 
L 2290 5119 
z
" transform="scale(0.015625)"/>
      </defs>
      <use xlink:href="#DejaVuSans-41"/>
      <use xlink:href="#DejaVuSans-63" transform="translate(66.658203 0)"/>
      <use xlink:href="#DejaVuSans-75" transform="translate(121.638672 0)"/>
      <use xlink:href="#DejaVuSans-72" transform="translate(185.017578 0)"/>
      <use xlink:href="#DejaVuSans-e1" transform="translate(226.130859 0)"/>
      <use xlink:href="#DejaVuSans-63" transform="translate(287.410156 0)"/>
      <use xlink:href="#DejaVuSans-69" transform="translate(342.390625 0)"/>
      <use xlink:href="#DejaVuSans-61" transform="translate(370.173828 0)"/>
     </g>
    </g>
   </g>
   <g id="line2d_34">
    <path d="M 517.620093 288.901875 
L 535.82366 210.488125 
L 554.027227 171.129184 
L 572.230793 148.130474 
L 590.43436 126.788762 
L 608.637927 109.453209 
L 626.841494 99.699994 
L 645.04506 88.6883 
L 663.248627 82.165182 
L 681.452194 73.827756 
L 699.655761 69.486003 
L 717.859327 60.802495 
L 736.062894 57.887018 
L 754.266461 54.226941 
L 772.470028 49.696415 
L 790.673594 47.536025 
L 808.877161 44.347878 
L 827.080728 41.767995 
L 845.284295 39.492245 
L 863.487862 36.901875 
" clip-path="url(#pdcb7db230d)" style="fill: none; stroke: #ff0000; stroke-width: 1.5; stroke-linecap: square"/>
    <g clip-path="url(#pdcb7db230d)">
     <use xlink:href="#mb679cedc3f" x="517.620093" y="288.901875" style="fill: #ff0000; stroke: #ff0000"/>
     <use xlink:href="#mb679cedc3f" x="535.82366" y="210.488125" style="fill: #ff0000; stroke: #ff0000"/>
     <use xlink:href="#mb679cedc3f" x="554.027227" y="171.129184" style="fill: #ff0000; stroke: #ff0000"/>
     <use xlink:href="#mb679cedc3f" x="572.230793" y="148.130474" style="fill: #ff0000; stroke: #ff0000"/>
     <use xlink:href="#mb679cedc3f" x="590.43436" y="126.788762" style="fill: #ff0000; stroke: #ff0000"/>
     <use xlink:href="#mb679cedc3f" x="608.637927" y="109.453209" style="fill: #ff0000; stroke: #ff0000"/>
     <use xlink:href="#mb679cedc3f" x="626.841494" y="99.699994" style="fill: #ff0000; stroke: #ff0000"/>
     <use xlink:href="#mb679cedc3f" x="645.04506" y="88.6883" style="fill: #ff0000; stroke: #ff0000"/>
     <use xlink:href="#mb679cedc3f" x="663.248627" y="82.165182" style="fill: #ff0000; stroke: #ff0000"/>
     <use xlink:href="#mb679cedc3f" x="681.452194" y="73.827756" style="fill: #ff0000; stroke: #ff0000"/>
     <use xlink:href="#mb679cedc3f" x="699.655761" y="69.486003" style="fill: #ff0000; stroke: #ff0000"/>
     <use xlink:href="#mb679cedc3f" x="717.859327" y="60.802495" style="fill: #ff0000; stroke: #ff0000"/>
     <use xlink:href="#mb679cedc3f" x="736.062894" y="57.887018" style="fill: #ff0000; stroke: #ff0000"/>
     <use xlink:href="#mb679cedc3f" x="754.266461" y="54.226941" style="fill: #ff0000; stroke: #ff0000"/>
     <use xlink:href="#mb679cedc3f" x="772.470028" y="49.696415" style="fill: #ff0000; stroke: #ff0000"/>
     <use xlink:href="#mb679cedc3f" x="790.673594" y="47.536025" style="fill: #ff0000; stroke: #ff0000"/>
     <use xlink:href="#mb679cedc3f" x="808.877161" y="44.347878" style="fill: #ff0000; stroke: #ff0000"/>
     <use xlink:href="#mb679cedc3f" x="827.080728" y="41.767995" style="fill: #ff0000; stroke: #ff0000"/>
     <use xlink:href="#mb679cedc3f" x="845.284295" y="39.492245" style="fill: #ff0000; stroke: #ff0000"/>
     <use xlink:href="#mb679cedc3f" x="863.487862" y="36.901875" style="fill: #ff0000; stroke: #ff0000"/>
    </g>
   </g>
   <g id="line2d_35">
    <path d="M 517.620093 173.06383 
L 535.82366 179.181475 
L 554.027227 126.373967 
L 572.230793 110.614914 
L 590.43436 123.388556 
L 608.637927 97.988096 
L 626.841494 81.054456 
L 645.04506 104.644093 
L 663.248627 76.796575 
L 681.452194 90.304334 
L 699.655761 73.566459 
L 717.859327 90.98951 
L 736.062894 72.049283 
L 754.266461 67.889284 
L 772.470028 71.315165 
L 790.673594 58.101053 
L 808.877161 52.081291 
L 827.080728 55.066701 
L 845.284295 82.277984 
L 863.487862 58.492582 
" clip-path="url(#pdcb7db230d)" style="fill: none; stroke: #0000ff; stroke-width: 1.5; stroke-linecap: square"/>
    <g clip-path="url(#pdcb7db230d)">
     <use xlink:href="#ma53efd6fcb" x="517.620093" y="173.06383" style="fill: #0000ff; stroke: #0000ff"/>
     <use xlink:href="#ma53efd6fcb" x="535.82366" y="179.181475" style="fill: #0000ff; stroke: #0000ff"/>
     <use xlink:href="#ma53efd6fcb" x="554.027227" y="126.373967" style="fill: #0000ff; stroke: #0000ff"/>
     <use xlink:href="#ma53efd6fcb" x="572.230793" y="110.614914" style="fill: #0000ff; stroke: #0000ff"/>
     <use xlink:href="#ma53efd6fcb" x="590.43436" y="123.388556" style="fill: #0000ff; stroke: #0000ff"/>
     <use xlink:href="#ma53efd6fcb" x="608.637927" y="97.988096" style="fill: #0000ff; stroke: #0000ff"/>
     <use xlink:href="#ma53efd6fcb" x="626.841494" y="81.054456" style="fill: #0000ff; stroke: #0000ff"/>
     <use xlink:href="#ma53efd6fcb" x="645.04506" y="104.644093" style="fill: #0000ff; stroke: #0000ff"/>
     <use xlink:href="#ma53efd6fcb" x="663.248627" y="76.796575" style="fill: #0000ff; stroke: #0000ff"/>
     <use xlink:href="#ma53efd6fcb" x="681.452194" y="90.304334" style="fill: #0000ff; stroke: #0000ff"/>
     <use xlink:href="#ma53efd6fcb" x="699.655761" y="73.566459" style="fill: #0000ff; stroke: #0000ff"/>
     <use xlink:href="#ma53efd6fcb" x="717.859327" y="90.98951" style="fill: #0000ff; stroke: #0000ff"/>
     <use xlink:href="#ma53efd6fcb" x="736.062894" y="72.049283" style="fill: #0000ff; stroke: #0000ff"/>
     <use xlink:href="#ma53efd6fcb" x="754.266461" y="67.889284" style="fill: #0000ff; stroke: #0000ff"/>
     <use xlink:href="#ma53efd6fcb" x="772.470028" y="71.315165" style="fill: #0000ff; stroke: #0000ff"/>
     <use xlink:href="#ma53efd6fcb" x="790.673594" y="58.101053" style="fill: #0000ff; stroke: #0000ff"/>
     <use xlink:href="#ma53efd6fcb" x="808.877161" y="52.081291" style="fill: #0000ff; stroke: #0000ff"/>
     <use xlink:href="#ma53efd6fcb" x="827.080728" y="55.066701" style="fill: #0000ff; stroke: #0000ff"/>
     <use xlink:href="#ma53efd6fcb" x="845.284295" y="82.277984" style="fill: #0000ff; stroke: #0000ff"/>
     <use xlink:href="#ma53efd6fcb" x="863.487862" y="58.492582" style="fill: #0000ff; stroke: #0000ff"/>
    </g>
   </g>
   <g id="line2d_36">
    <path d="M 827.080728 301.501875 
L 827.080728 24.301875 
" clip-path="url(#pdcb7db230d)" style="fill: none; stroke-dasharray: 5.55,2.4; stroke-dashoffset: 0; stroke: #008000; stroke-width: 1.5"/>
   </g>
   <g id="patch_9">
    <path d="M 500.326705 301.501875 
L 500.326705 24.301875 
" style="fill: none; stroke: #000000; stroke-width: 0.8; stroke-linejoin: miter; stroke-linecap: square"/>
   </g>
   <g id="patch_10">
    <path d="M 880.78125 301.501875 
L 880.78125 24.301875 
" style="fill: none; stroke: #000000; stroke-width: 0.8; stroke-linejoin: miter; stroke-linecap: square"/>
   </g>
   <g id="patch_11">
    <path d="M 500.326705 301.501875 
L 880.78125 301.501875 
" style="fill: none; stroke: #000000; stroke-width: 0.8; stroke-linejoin: miter; stroke-linecap: square"/>
   </g>
   <g id="patch_12">
    <path d="M 500.326705 24.301875 
L 880.78125 24.301875 
" style="fill: none; stroke: #000000; stroke-width: 0.8; stroke-linejoin: miter; stroke-linecap: square"/>
   </g>
   <g id="text_36">
    <!-- Evolução da Acurácia por Época -->
    <g transform="translate(594.228665 18.301875) scale(0.12 -0.12)">
     <use xlink:href="#DejaVuSans-45"/>
     <use xlink:href="#DejaVuSans-76" transform="translate(63.183594 0)"/>
     <use xlink:href="#DejaVuSans-6f" transform="translate(122.363281 0)"/>
     <use xlink:href="#DejaVuSans-6c" transform="translate(183.544922 0)"/>
     <use xlink:href="#DejaVuSans-75" transform="translate(211.328125 0)"/>
     <use xlink:href="#DejaVuSans-e7" transform="translate(274.707031 0)"/>
     <use xlink:href="#DejaVuSans-e3" transform="translate(329.6875 0)"/>
     <use xlink:href="#DejaVuSans-6f" transform="translate(390.966797 0)"/>
     <use xlink:href="#DejaVuSans-20" transform="translate(452.148438 0)"/>
     <use xlink:href="#DejaVuSans-64" transform="translate(483.935547 0)"/>
     <use xlink:href="#DejaVuSans-61" transform="translate(547.412109 0)"/>
     <use xlink:href="#DejaVuSans-20" transform="translate(608.691406 0)"/>
     <use xlink:href="#DejaVuSans-41" transform="translate(640.478516 0)"/>
     <use xlink:href="#DejaVuSans-63" transform="translate(707.136719 0)"/>
     <use xlink:href="#DejaVuSans-75" transform="translate(762.117188 0)"/>
     <use xlink:href="#DejaVuSans-72" transform="translate(825.496094 0)"/>
     <use xlink:href="#DejaVuSans-e1" transform="translate(866.609375 0)"/>
     <use xlink:href="#DejaVuSans-63" transform="translate(927.888672 0)"/>
     <use xlink:href="#DejaVuSans-69" transform="translate(982.869141 0)"/>
     <use xlink:href="#DejaVuSans-61" transform="translate(1010.652344 0)"/>
     <use xlink:href="#DejaVuSans-20" transform="translate(1071.931641 0)"/>
     <use xlink:href="#DejaVuSans-70" transform="translate(1103.71875 0)"/>
     <use xlink:href="#DejaVuSans-6f" transform="translate(1167.195312 0)"/>
     <use xlink:href="#DejaVuSans-72" transform="translate(1228.376953 0)"/>
     <use xlink:href="#DejaVuSans-20" transform="translate(1269.490234 0)"/>
     <use xlink:href="#DejaVuSans-c9" transform="translate(1301.277344 0)"/>
     <use xlink:href="#DejaVuSans-70" transform="translate(1364.460938 0)"/>
     <use xlink:href="#DejaVuSans-6f" transform="translate(1427.9375 0)"/>
     <use xlink:href="#DejaVuSans-63" transform="translate(1489.119141 0)"/>
     <use xlink:href="#DejaVuSans-61" transform="translate(1544.099609 0)"/>
    </g>
   </g>
   <g id="legend_2">
    <g id="patch_13">
     <path d="M 609.18054 296.501875 
L 771.927415 296.501875 
Q 773.927415 296.501875 773.927415 294.501875 
L 773.927415 249.565938 
Q 773.927415 247.565938 771.927415 247.565938 
L 609.18054 247.565938 
Q 607.18054 247.565938 607.18054 249.565938 
L 607.18054 294.501875 
Q 607.18054 296.501875 609.18054 296.501875 
z
" style="fill: #ffffff; opacity: 0.8; stroke: #cccccc; stroke-linejoin: miter"/>
    </g>
    <g id="line2d_37">
     <path d="M 611.18054 255.664375 
L 621.18054 255.664375 
L 631.18054 255.664375 
" style="fill: none; stroke: #ff0000; stroke-width: 1.5; stroke-linecap: square"/>
     <g>
      <use xlink:href="#mb679cedc3f" x="621.18054" y="255.664375" style="fill: #ff0000; stroke: #ff0000"/>
     </g>
    </g>
    <g id="text_37">
     <!-- Acurácia de Treinamento -->
     <g transform="translate(639.18054 259.164375) scale(0.1 -0.1)">
      <use xlink:href="#DejaVuSans-41"/>
      <use xlink:href="#DejaVuSans-63" transform="translate(66.658203 0)"/>
      <use xlink:href="#DejaVuSans-75" transform="translate(121.638672 0)"/>
      <use xlink:href="#DejaVuSans-72" transform="translate(185.017578 0)"/>
      <use xlink:href="#DejaVuSans-e1" transform="translate(226.130859 0)"/>
      <use xlink:href="#DejaVuSans-63" transform="translate(287.410156 0)"/>
      <use xlink:href="#DejaVuSans-69" transform="translate(342.390625 0)"/>
      <use xlink:href="#DejaVuSans-61" transform="translate(370.173828 0)"/>
      <use xlink:href="#DejaVuSans-20" transform="translate(431.453125 0)"/>
      <use xlink:href="#DejaVuSans-64" transform="translate(463.240234 0)"/>
      <use xlink:href="#DejaVuSans-65" transform="translate(526.716797 0)"/>
      <use xlink:href="#DejaVuSans-20" transform="translate(588.240234 0)"/>
      <use xlink:href="#DejaVuSans-54" transform="translate(620.027344 0)"/>
      <use xlink:href="#DejaVuSans-72" transform="translate(666.361328 0)"/>
      <use xlink:href="#DejaVuSans-65" transform="translate(705.224609 0)"/>
      <use xlink:href="#DejaVuSans-69" transform="translate(766.748047 0)"/>
      <use xlink:href="#DejaVuSans-6e" transform="translate(794.53125 0)"/>
      <use xlink:href="#DejaVuSans-61" transform="translate(857.910156 0)"/>
      <use xlink:href="#DejaVuSans-6d" transform="translate(919.189453 0)"/>
      <use xlink:href="#DejaVuSans-65" transform="translate(1016.601562 0)"/>
      <use xlink:href="#DejaVuSans-6e" transform="translate(1078.125 0)"/>
      <use xlink:href="#DejaVuSans-74" transform="translate(1141.503906 0)"/>
      <use xlink:href="#DejaVuSans-6f" transform="translate(1180.712891 0)"/>
     </g>
    </g>
    <g id="line2d_38">
     <path d="M 611.18054 270.590938 
L 621.18054 270.590938 
L 631.18054 270.590938 
" style="fill: none; stroke: #0000ff; stroke-width: 1.5; stroke-linecap: square"/>
     <g>
      <use xlink:href="#ma53efd6fcb" x="621.18054" y="270.590938" style="fill: #0000ff; stroke: #0000ff"/>
     </g>
    </g>
    <g id="text_38">
     <!-- Acurácia de Validação -->
     <g transform="translate(639.18054 274.090938) scale(0.1 -0.1)">
      <use xlink:href="#DejaVuSans-41"/>
      <use xlink:href="#DejaVuSans-63" transform="translate(66.658203 0)"/>
      <use xlink:href="#DejaVuSans-75" transform="translate(121.638672 0)"/>
      <use xlink:href="#DejaVuSans-72" transform="translate(185.017578 0)"/>
      <use xlink:href="#DejaVuSans-e1" transform="translate(226.130859 0)"/>
      <use xlink:href="#DejaVuSans-63" transform="translate(287.410156 0)"/>
      <use xlink:href="#DejaVuSans-69" transform="translate(342.390625 0)"/>
      <use xlink:href="#DejaVuSans-61" transform="translate(370.173828 0)"/>
      <use xlink:href="#DejaVuSans-20" transform="translate(431.453125 0)"/>
      <use xlink:href="#DejaVuSans-64" transform="translate(463.240234 0)"/>
      <use xlink:href="#DejaVuSans-65" transform="translate(526.716797 0)"/>
      <use xlink:href="#DejaVuSans-20" transform="translate(588.240234 0)"/>
      <use xlink:href="#DejaVuSans-56" transform="translate(620.027344 0)"/>
      <use xlink:href="#DejaVuSans-61" transform="translate(680.685547 0)"/>
      <use xlink:href="#DejaVuSans-6c" transform="translate(741.964844 0)"/>
      <use xlink:href="#DejaVuSans-69" transform="translate(769.748047 0)"/>
      <use xlink:href="#DejaVuSans-64" transform="translate(797.53125 0)"/>
      <use xlink:href="#DejaVuSans-61" transform="translate(861.007812 0)"/>
      <use xlink:href="#DejaVuSans-e7" transform="translate(922.287109 0)"/>
      <use xlink:href="#DejaVuSans-e3" transform="translate(977.267578 0)"/>
      <use xlink:href="#DejaVuSans-6f" transform="translate(1038.546875 0)"/>
     </g>
    </g>
    <g id="line2d_39">
     <path d="M 611.18054 286.922188 
L 621.18054 286.922188 
L 631.18054 286.922188 
" style="fill: none; stroke-dasharray: 5.55,2.4; stroke-dashoffset: 0; stroke: #008000; stroke-width: 1.5"/>
    </g>
    <g id="text_39">
     <!-- Melhor Modelo (Época 18) -->
     <g transform="translate(639.18054 290.422188) scale(0.1 -0.1)">
      <use xlink:href="#DejaVuSans-4d"/>
      <use xlink:href="#DejaVuSans-65" transform="translate(86.279297 0)"/>
      <use xlink:href="#DejaVuSans-6c" transform="translate(147.802734 0)"/>
      <use xlink:href="#DejaVuSans-68" transform="translate(175.585938 0)"/>
      <use xlink:href="#DejaVuSans-6f" transform="translate(238.964844 0)"/>
      <use xlink:href="#DejaVuSans-72" transform="translate(300.146484 0)"/>
      <use xlink:href="#DejaVuSans-20" transform="translate(341.259766 0)"/>
      <use xlink:href="#DejaVuSans-4d" transform="translate(373.046875 0)"/>
      <use xlink:href="#DejaVuSans-6f" transform="translate(459.326172 0)"/>
      <use xlink:href="#DejaVuSans-64" transform="translate(520.507812 0)"/>
      <use xlink:href="#DejaVuSans-65" transform="translate(583.984375 0)"/>
      <use xlink:href="#DejaVuSans-6c" transform="translate(645.507812 0)"/>
      <use xlink:href="#DejaVuSans-6f" transform="translate(673.291016 0)"/>
      <use xlink:href="#DejaVuSans-20" transform="translate(734.472656 0)"/>
      <use xlink:href="#DejaVuSans-28" transform="translate(766.259766 0)"/>
      <use xlink:href="#DejaVuSans-c9" transform="translate(805.273438 0)"/>
      <use xlink:href="#DejaVuSans-70" transform="translate(868.457031 0)"/>
      <use xlink:href="#DejaVuSans-6f" transform="translate(931.933594 0)"/>
      <use xlink:href="#DejaVuSans-63" transform="translate(993.115234 0)"/>
      <use xlink:href="#DejaVuSans-61" transform="translate(1048.095703 0)"/>
      <use xlink:href="#DejaVuSans-20" transform="translate(1109.375 0)"/>
      <use xlink:href="#DejaVuSans-31" transform="translate(1141.162109 0)"/>
      <use xlink:href="#DejaVuSans-38" transform="translate(1204.785156 0)"/>
      <use xlink:href="#DejaVuSans-29" transform="translate(1268.408203 0)"/>
     </g>
    </g>
   </g>
  </g>
 </g>
 <defs>
  <clipPath id="pa85ab026ed">
   <rect x="43.78125" y="24.301875" width="380.454545" height="277.2"/>
  </clipPath>
  <clipPath id="pdcb7db230d">
   <rect x="500.326705" y="24.301875" width="380.454545" height="277.2"/>
  </clipPath>
 </defs>
</svg>
